<?xml version="1.0" encoding="iso-8859-1"?>
<!-- Uploaded to: SVG Repo, www.svgrepo.com, Generator: SVG Repo Mixer Tools -->
<svg height="800px" width="800px" version="1.1" id="Layer_1" xmlns="http://www.w3.org/2000/svg" xmlns:xlink="http://www.w3.org/1999/xlink" 
	 viewBox="0 0 512 512" xml:space="preserve">
<path style="fill:#698F92;" d="M456.313,80.958H55.687c-13.512,0-24.467,10.955-24.467,24.467v280.882h449.56V105.426
	C480.78,91.912,469.825,80.958,456.313,80.958z"/>
<path style="opacity:0.15;fill:#231F20;enable-background:new    ;" d="M73.495,80.958H55.687
	c-13.512,0-24.467,10.955-24.467,24.467v280.882h17.809V105.426C49.028,91.912,59.984,80.958,73.495,80.958z"/>
<path style="fill:#53CAF9;" d="M447.219,398.604c0,7.376-5.98,13.357-13.357,13.357H78.138c-7.376,0-13.357-5.98-13.357-13.357
	V129.171c0-7.376,5.98-13.357,13.357-13.357h355.724c7.376,0,13.357,5.98,13.357,13.357V398.604z"/>
<path style="fill:#F5F5F5;" d="M433.862,115.815H105.375v33.238h341.843v-19.881C447.219,121.794,441.238,115.815,433.862,115.815z"
	/>
<g>
	<path style="fill:#A8E2EF;" d="M221.46,275.91H111.267c-4.61,0-8.348-3.738-8.348-8.348s3.738-8.348,8.348-8.348H221.46
		c4.611,0,8.348,3.738,8.348,8.348C229.808,272.172,226.07,275.91,221.46,275.91z"/>
	<path style="fill:#A8E2EF;" d="M221.46,312.006H111.267c-4.61,0-8.348-3.738-8.348-8.348s3.738-8.348,8.348-8.348H221.46
		c4.611,0,8.348,3.738,8.348,8.348C229.808,308.268,226.07,312.006,221.46,312.006z"/>
	<path style="fill:#A8E2EF;" d="M221.46,348.102H111.267c-4.61,0-8.348-3.738-8.348-8.348s3.738-8.348,8.348-8.348H221.46
		c4.611,0,8.348,3.738,8.348,8.348S226.07,348.102,221.46,348.102z"/>
	<path style="fill:#A8E2EF;" d="M410.676,217.044c0,7.377-5.979,13.357-13.357,13.357H112.381c-7.377,0-13.357-5.979-13.357-13.357
		v-19.701c0-7.376,5.979-13.357,13.357-13.357H397.32c7.377,0,13.357,5.98,13.357,13.357V217.044z"/>
	<path style="fill:#A8E2EF;" d="M410.676,326.397c0,7.377-5.979,13.357-13.357,13.357H269.357c-7.377,0-13.357-5.979-13.357-13.357
		v-45.478c0-7.377,5.979-13.357,13.357-13.357H397.32c7.377,0,13.357,5.979,13.357,13.357V326.397z"/>
</g>
<path style="fill:#F2304D;" d="M111.267,149.053v-33.238H78.138c-7.376,0-13.357,5.98-13.357,13.357v19.881H111.267z"/>
<path style="opacity:0.15;fill:#231F20;enable-background:new    ;" d="M82.4,398.604V129.171c0-7.376,5.979-13.357,13.357-13.357
	H78.138c-7.376,0-13.357,5.98-13.357,13.357v269.432c0,7.376,5.98,13.357,13.357,13.357h17.618
	C88.379,411.96,82.4,405.981,82.4,398.604z"/>
<path style="fill:#DBDDDD;" d="M504.209,380.742H7.791c-4.303,0-7.791,3.488-7.791,7.791v16.098
	c0,14.564,11.847,26.411,26.41,26.411h459.178c14.563,0,26.411-11.848,26.411-26.411v-16.098
	C512,384.23,508.512,380.742,504.209,380.742z"/>
<path style="fill:#EAE9E8;" d="M182.461,380.742v11.795c0,7.376,5.98,13.357,13.357,13.357h120.365
	c7.377,0,13.357-5.98,13.357-13.357v-11.795L182.461,380.742L182.461,380.742z"/>
</svg>