<?xml version="1.0" encoding="utf-8"?>
<!-- Uploaded to: SVG Repo, www.svgrepo.com, Generator: SVG Repo Mixer Tools -->
<svg width="800px" height="800px" viewBox="-0.14 0 20.03 20.03" xmlns="http://www.w3.org/2000/svg">
  <g id="moon-alt" transform="translate(-2.25 -2)">
    <path id="secondary" fill="#2ca9bc" d="M21,12A9,9,0,0,1,3.25,14.13,6.9,6.9,0,0,0,8,16,7,7,0,0,0,11.61,3H12a9,9,0,0,1,9,9Z"/>
    <path id="primary" d="M21,12A9,9,0,0,1,3.25,14.13,6.9,6.9,0,0,0,8,16,7,7,0,0,0,11.61,3H12a9,9,0,0,1,9,9Z" fill="none" stroke="#000000" stroke-linecap="round" stroke-linejoin="round" stroke-width="2"/>
  </g>
</svg>